HIERARCHY
ROOT Hips
{
	OFFSET 0.00000 0.00000 0.00000
	CHANNELS 6 Xposition Yposition Zposition Zrotation Yrotation Xrotation 
	JOINT LHipJoint
	{
		OFFSET 0 0 0
		CHANNELS 3 Zrotation Yrotation Xrotation
		JOINT LeftUpLeg
		{
			OFFSET 1.30186 -1.90722 0.65024
			CHANNELS 3 Zrotation Yrotation Xrotation
			JOINT LeftLeg
			{
				OFFSET 2.56413 -7.04489 0.00000
				CHANNELS 3 Zrotation Yrotation Xrotation
				JOINT LeftFoot
				{
					OFFSET 2.79321 -7.67428 0.00000
					CHANNELS 3 Zrotation Yrotation Xrotation
					JOINT LeftToeBase
					{
						OFFSET 0.15723 -0.43198 2.08537
						CHANNELS 3 Zrotation Yrotation Xrotation
						End Site
						{
							OFFSET 0.00000 -0.00000 1.07411
						}
					}
				}
			}
		}
	}
	JOINT RHipJoint
	{
		OFFSET 0 0 0
		CHANNELS 3 Zrotation Yrotation Xrotation
		JOINT RightUpLeg
		{
			OFFSET -1.28627 -1.90723 0.65024
			CHANNELS 3 Zrotation Yrotation Xrotation
			JOINT RightLeg
			{
				OFFSET -2.56567 -7.04913 0.00000
				CHANNELS 3 Zrotation Yrotation Xrotation
				JOINT RightFoot
				{
					OFFSET -2.75597 -7.57198 0.00000
					CHANNELS 3 Zrotation Yrotation Xrotation
					JOINT RightToeBase
					{
						OFFSET -0.17500 -0.48081 2.22901
						CHANNELS 3 Zrotation Yrotation Xrotation
						End Site
						{
							OFFSET -0.00000 -0.00000 1.14762
						}
					}
				}
			}
		}
	}
	JOINT LowerBack
	{
		OFFSET 0 0 0
		CHANNELS 3 Zrotation Yrotation Xrotation
		JOINT Spine
		{
			OFFSET -0.04522 2.07467 -0.16566
			CHANNELS 3 Zrotation Yrotation Xrotation
			JOINT Spine1
			{
				OFFSET -0.01178 2.08825 -0.05393
				CHANNELS 3 Zrotation Yrotation Xrotation
				JOINT Neck
				{
					OFFSET 0 0 0
					CHANNELS 3 Zrotation Yrotation Xrotation
					JOINT Neck1
					{
						OFFSET -0.05182 1.80489 0.16014
						CHANNELS 3 Zrotation Yrotation Xrotation
						JOINT Head
						{
							OFFSET 0.14739 1.78840 -0.33342
							CHANNELS 3 Zrotation Yrotation Xrotation
							End Site
							{
								OFFSET 0.04364 1.83899 -0.13460
							}
						}
					}
				}
				JOINT LeftShoulder
				{
					OFFSET 0 0 0
					CHANNELS 3 Zrotation Yrotation Xrotation
					JOINT LeftArm
					{
						OFFSET 3.01264 1.29090 -0.06579
						CHANNELS 3 Zrotation Yrotation Xrotation
						JOINT LeftForeArm
						{
							OFFSET 5.55680 -0.00000 0.00000
							CHANNELS 3 Zrotation Yrotation Xrotation
							JOINT LeftHand
							{
								OFFSET 3.63979 -0.00000 -0.00000
								CHANNELS 3 Zrotation Yrotation Xrotation
								JOINT LeftFingerBase
								{
									OFFSET 0 0 0
									CHANNELS 3 Zrotation Yrotation Xrotation
									JOINT LeftHandIndex1
									{
										OFFSET 0.56942 -0.00000 -0.00000
										CHANNELS 3 Zrotation Yrotation Xrotation
										End Site
										{
											OFFSET 0.45908 -0.00000 -0.00000
										}
									}
								}
								JOINT LThumb
								{
									OFFSET 0 0 0
									CHANNELS 3 Zrotation Yrotation Xrotation
									End Site
									{
										OFFSET 0.46609 -0.00000 0.46609
									}
								}
							}
						}
					}
				}
				JOINT RightShoulder
				{
					OFFSET 0 0 0
					CHANNELS 3 Zrotation Yrotation Xrotation
					JOINT RightArm
					{
						OFFSET -3.15796 1.37283 -0.36748
						CHANNELS 3 Zrotation Yrotation Xrotation
						JOINT RightForeArm
						{
							OFFSET -5.34339 -0.00000 0.00000
							CHANNELS 3 Zrotation Yrotation Xrotation
							JOINT RightHand
							{
								OFFSET -3.65101 -0.00000 -0.00000
								CHANNELS 3 Zrotation Yrotation Xrotation
								JOINT RightFingerBase
								{
									OFFSET 0 0 0
									CHANNELS 3 Zrotation Yrotation Xrotation
									JOINT RightHandIndex1
									{
										OFFSET -0.69425 -0.00000 -0.00000
										CHANNELS 3 Zrotation Yrotation Xrotation
										End Site
										{
											OFFSET -0.55972 -0.00000 -0.00000
										}
									}
								}
								JOINT RThumb
								{
									OFFSET 0 0 0
									CHANNELS 3 Zrotation Yrotation Xrotation
									End Site
									{
										OFFSET -0.56827 -0.00000 0.56827
									}
								}
							}
						}
					}
				}
			}
		}
	}
}
MOTION
Frames: 8
Frame Time: 0.0263158
0.00 0.00 0.00 -172.8290 -43.7732 161.3740 0.0000 0.0000 0.0000 3.5351 -5.0017 -41.1897 28.6075 18.1219 115.9502 -1.8027 -24.6654 -0.4086 2.1751 -9.2217 -26.4914 0.0000 0.0000 0.0000 -7.5061 34.3678 -36.5929 -14.2939 -19.2008 73.1002 -1.2822 1.8526 -20.8783 -4.4801 12.7732 -38.5255 10.6842 2.2485 20.0032 6.0562 3.9086 8.0254 -0.3279 1.4994 -2.0383 8.9106 9.1666 -5.6702 -17.8230 12.1295 0.5595 -6.2343 5.6065 2.8085 -0.0000 -0.0000 0.0000 -84.0580 -1.8596 32.9322 53.7323 -54.3942 -29.1825 -0.0000 0.0000 -11.7007 31.7367 5.0765 3.1326 -7.1250 0.0000 -0.0000 4.2424 35.9155 -0.9494 -0.0000 -0.0000 0.0000 67.1275 29.7201 15.0382 -16.3767 26.0287 -3.8098 0.0000 -0.0000 -4.0658 -36.1407 36.8024 -23.6289 7.1250 -0.0000 -0.0000 -1.1306 12.8259 -1.3536
0.00 0.00 0.00 -176.5990 -11.1342 165.7990 0.0000 0.0000 0.0000 -32.4534 4.6847 -35.2033 8.5841 16.5325 54.6405 1.0772 3.7955 -21.3178 1.9975 8.8609 25.3612 0.0000 0.0000 0.0000 4.5519 9.4682 -18.7207 -22.3328 -19.8690 96.8348 -0.0858 3.1934 -5.3309 -0.3796 3.9569 -10.9553 10.0839 2.5298 11.9322 5.6219 3.1947 6.9677 -0.0901 1.2740 1.0060 7.7262 9.6778 -2.4680 -17.5359 12.7851 -0.0090 -6.0683 6.0321 2.0945 0.0000 -0.0000 0.0000 -88.1836 15.0377 36.1771 34.4856 -44.4413 -14.4520 -0.0000 0.0000 -12.9081 31.2928 3.4009 2.0651 -7.1250 0.0000 -0.0000 3.8400 33.9390 -1.0439 0.0000 -0.0000 0.0000 59.5768 22.6301 -2.1599 -21.3499 32.2345 -6.2355 0.0000 -0.0000 -8.7543 -35.6685 35.9308 -22.8396 7.1250 -0.0000 -0.0000 -1.1221 11.7475 -1.3273
0.00 0.00 0.00 -170.4840 23.2247 177.6960 0.0000 0.0000 0.0000 -16.9863 7.5331 -38.4986 20.4446 19.9953 91.3000 -0.1819 -9.7097 10.0750 0.0058 -0.4912 -1.3498 0.0000 0.0000 0.0000 9.3059 24.8498 -11.2434 -3.9382 -12.0777 36.0073 -0.9443 -3.2345 -19.7957 -1.0093 6.3924 -17.9272 10.9227 4.2596 11.0958 1.9311 7.3058 3.8122 -4.8542 3.8988 -1.0862 15.8670 6.3284 2.4882 -15.3267 9.1961 1.1172 -7.1201 4.7285 1.3803 0.0000 0.0000 0.0000 -83.0309 19.5916 41.3102 25.3211 -36.5304 -8.4803 -0.0000 0.0000 -9.8413 27.6332 12.4264 6.4275 -7.1250 0.0000 -0.0000 0.3487 43.9460 -0.0091 0.0000 0.0000 0.0000 75.7146 7.6142 -6.7442 -17.5993 27.6410 -4.3617 0.0000 -0.0000 -5.3391 -35.2403 36.3172 -22.7051 7.1250 -0.0000 -0.0000 -0.7961 12.0027 -0.9443
0.00 0.00 0.00 -171.7670 32.8103 181.5370 0.0000 0.0000 0.0000 -21.5020 2.4309 -21.7026 15.3111 19.4645 76.1722 -0.0010 -0.7691 0.8274 0.0563 1.5313 4.2120 0.0000 0.0000 0.0000 3.2484 23.0865 -19.7831 -3.2615 -11.1068 32.6409 -0.9153 -10.9500 -25.1278 -0.0166 0.8322 -2.2873 9.0215 8.0356 8.8754 -1.5037 11.6034 -0.0593 -7.6417 5.6611 -2.8948 20.6833 4.1998 2.6732 -13.7825 6.7980 5.5861 -7.4954 3.6898 2.3773 0.0000 -0.0000 0.0000 -71.4651 20.5137 52.6153 26.0722 -37.2800 -8.9314 -0.0000 0.0000 -11.5216 29.8840 4.8813 2.7994 -7.1250 0.0000 -0.0000 2.6869 35.5949 -0.6215 0.0000 -0.0000 0.0000 81.5659 -1.7882 -12.4022 -19.8267 30.4330 -5.4433 0.0000 -0.0000 -7.0558 -34.0833 36.5618 -21.9524 7.1250 -0.0000 -0.0000 -0.1301 11.8630 -0.1540
0.00 0.00 0.00 -171.3490 37.5400 182.3880 0.0000 0.0000 0.0000 -25.8326 -5.0458 -10.2366 10.2068 17.5245 60.1773 0.2163 -16.7501 -13.8113 0.0258 1.0366 2.8494 0.0000 0.0000 0.0000 0.7344 26.4478 -20.2993 -3.8890 -12.0112 35.7717 -0.5843 -5.6683 -17.6146 -0.1358 2.3751 -6.5436 7.4474 9.1942 9.4847 -2.5500 13.0189 -1.1692 -8.2117 6.2687 -4.2329 24.4015 3.4003 3.6182 -14.8196 5.9192 4.2714 -8.5178 3.2893 1.8271 -0.0000 -0.0000 0.0000 -66.5019 17.6115 57.7703 25.7570 -36.9678 -8.7411 -0.0000 0.0000 -10.4917 28.7195 1.9127 1.0477 -7.1250 0.0000 -0.0000 1.7238 32.1579 -0.5420 -0.0000 -0.0000 0.0000 82.6365 -3.9339 -14.6732 -20.2627 30.9575 -5.6658 0.0000 -0.0000 -7.0814 -34.1949 36.6669 -22.0850 7.1250 -0.0000 -0.0000 -0.1606 12.0096 -0.1905
0.00 0.00 0.00 -164.6390 44.7342 185.5730 0.0000 0.0000 0.0000 -20.5350 -5.9879 -24.3846 11.3503 18.1023 63.9141 1.4422 -14.9802 -22.4556 1.6222 8.0304 22.8064 0.0000 0.0000 0.0000 9.1789 20.9228 -10.1895 -8.2122 -16.2731 53.3233 -0.6726 -5.7092 -18.6096 -0.0625 1.6136 -4.4389 8.8956 10.7672 12.3125 -2.9606 15.5440 -1.0000 -10.0809 7.4749 -4.6558 28.7086 1.1604 4.5501 -15.5119 3.1165 1.7351 -9.5572 1.8506 0.4557 -0.0000 -0.0000 0.0000 -65.1104 6.8532 49.6596 26.0239 -37.2323 -8.9021 -0.0000 0.0000 -17.3810 23.1176 6.4332 2.7385 -7.1250 0.0000 -0.0000 -3.0773 36.9541 0.6098 -0.0000 -0.0000 0.0000 86.6381 -4.2096 -19.9465 -18.6313 28.9580 -4.8511 0.0000 -0.0000 -5.1675 -34.8378 36.0379 -22.2676 7.1250 -0.0000 -0.0000 -0.6600 11.5724 -0.7791
0.00 0.00 0.00 -164.5910 49.2259 193.2070 0.0000 0.0000 0.0000 -18.0875 -6.3882 -42.8814 4.5114 12.8115 38.6669 0.0601 1.4942 4.3512 2.2593 9.3865 27.0120 0.0000 0.0000 0.0000 28.1872 2.4754 2.6437 -6.3629 -14.7711 46.4215 0.7627 16.1820 0.1966 -0.0432 -1.3413 3.6884 8.3551 12.1078 8.6885 -5.0671 16.9472 -2.5433 -11.3086 8.2467 -3.5226 26.3052 0.0737 4.6098 -13.7617 1.7923 4.5933 -8.5690 1.3513 0.9509 -0.0000 -0.0000 0.0000 -68.9490 5.7407 48.3974 29.0902 -40.1007 -10.8188 -0.0000 0.0000 -15.0803 22.9637 8.1164 3.4236 -7.1250 0.0000 -0.0000 -3.3666 38.7639 0.5179 -0.0000 -0.0000 0.0000 89.6770 -5.2716 -16.3276 -18.9531 29.3604 -5.0079 0.0000 -0.0000 -1.0976 -33.5870 38.4697 -22.4465 7.1250 -0.0000 -0.0000 0.6320 13.6638 0.7634
0.00 0.00 0.00 -180.0180 28.7492 188.7900 0.0000 0.0000 0.0000 -17.4866 0.0585 -26.1399 6.7003 15.0743 47.7317 2.3534 -2.0079 -28.5030 1.1412 -6.7838 -19.0765 0.0000 0.0000 0.0000 7.0864 11.4673 -29.4894 -12.9493 -18.7638 68.9680 0.5432 -16.1883 -16.4102 -0.8176 -5.7699 16.1181 -2.1471 2.0128 11.8769 1.3945 2.8830 5.0449 2.2750 1.5763 -1.5474 1.2952 3.9573 1.7299 -10.2421 5.2026 -4.1245 -3.6271 2.8721 -1.2890 0.0000 0.0000 0.0000 -86.4449 1.5736 22.2495 34.0816 -44.1451 -14.1699 -0.0000 0.0000 -14.4238 23.0469 2.3858 1.0146 -7.1250 0.0000 -0.0000 -2.8673 32.5634 0.8742 0.0000 0.0000 0.0000 74.7655 6.4845 18.5580 -21.3328 32.2147 -6.2264 0.0000 -0.0000 -1.6319 -33.9138 39.3468 -23.0866 7.1250 -0.0000 -0.0000 0.7088 14.6692 0.8652
